<svg id="Layer_1" data-name="Layer 1" xmlns="http://www.w3.org/2000/svg" viewBox="0 0 2020 365"><defs><style>.cls-1{fill:#e6ddde;}.cls-2{fill:#1d1d1b;}</style></defs><title>b&amp;amp;p_logo_new</title><polygon class="cls-1" points="1006.6 182.15 1041.55 182.15 1031.45 215.24 995.95 215.24 1006.6 182.15"/><path class="cls-2" d="M877.52,201.72q9.36-13.46,30.63-26.63l4.4-2.69a86.76,86.76,0,0,1-14-20.82,51.87,51.87,0,0,1-4.94-22.09q0-22.8,15.43-35.62t40-12.82q22.42,0,37.07,13.12t14.64,33.53q0,18.45-8.8,29.93T966.16,178.9l30,36.44c3.31,4,14.55,18,22.8,28.09l37.8,45.64h-48.89l-14.4-17.64q-10.56,9.76-19.71,14.43-16.28,8.36-37.56,8.35-32,0-50-18.7t-18-41.5Q868.16,215.17,877.52,201.72ZM917,251.79q8.52,8.64,21.88,8.65a41.39,41.39,0,0,0,19-4.56,56.55,56.55,0,0,0,14.56-10.18l-38.82-47.53q-15.3,10.07-20.24,17.73a30.53,30.53,0,0,0-4.93,16.88Q908.42,243.13,917,251.79ZM934.85,140a174.51,174.51,0,0,0,11.32,14.58q8.7-5.94,12.48-10.05,7.25-7.63,7.25-16.56a17.39,17.39,0,0,0-4.35-11.61q-4.35-5.1-13.21-5.09a19.2,19.2,0,0,0-10.3,3q-7.26,4.4-7.26,13.87Q930.78,133.76,934.85,140Z"/><path d="M238.16,100.27q9.74,13.55,9.73,32.39,0,19.44-9.82,31.24-5.49,6.63-16.19,12.1,16.25,5.9,24.51,18.71t8.27,31.1a62,62,0,0,1-9.45,33.83,58.36,58.36,0,0,1-39,27.35,146.9,146.9,0,0,1-30,2.88H80.61V77.67H183.16Q222,78.26,238.16,100.27ZM122.94,114.53v46.78h51.57q13.83,0,22.44-5.25t8.62-18.64q0-14.83-11.4-19.58-9.82-3.32-25.07-3.31Zm0,81.91V253h51.52q13.8,0,21.48-3.74,14-6.92,13.95-26.49,0-16.54-13.52-22.74-7.55-3.47-21.2-3.6Z"/><path d="M374.31,129.28c.52.05,1.7.12,3.52.22v42c-2.59-.28-4.89-.48-6.91-.57s-3.64-.15-4.89-.15q-24.76,0-33.25,16.13Q328,196,328,214.87v75H286.71V133h39.16V160.3q9.5-15.68,16.55-21.45,11.52-9.63,29.94-9.64C373.13,129.21,373.78,129.23,374.31,129.28Z"/><path d="M441.7,114.24H400.09V76.38H441.7ZM400.09,133H441.7V289.87H400.09Z"/><path d="M572.93,189.24A36.49,36.49,0,0,0,567,173.4q-6.93-9.5-21.51-9.5-20.78,0-28.42,20.59-4.05,10.92-4,29,0,17.22,4,27.71,7.35,19.57,27.7,19.58,14.43,0,20.49-7.78t7.36-20.15h41.9q-1.45,18.72-13.55,35.41-19.31,26.93-57.21,26.92T488,272.74q-17.86-22.47-17.86-58.24,0-40.38,19.74-62.83t54.47-22.46q29.53,0,48.34,13.24T615,189.24Z"/><path d="M640.25,78.39h40.31V192.86l51.75-59.19h51l-56.25,58.46,58.42,97.74H735.57l-38-67-17,17.66v49.38H640.25Z"/><path d="M1278.43,198q-18.63,15.55-53.21,15.55H1181v76.3H1137V77.67h91.11q31.52,0,50.24,16.41t18.74,50.82Q1297.07,182.47,1278.43,198Zm-33.84-76.44q-8.41-7-23.6-7h-40V177h40q15.18,0,23.6-7.63t8.43-24.18Q1253,128.63,1244.59,121.58Z"/><path d="M1453.69,270.67q-19.87,24.52-60.32,24.52t-60.32-24.52q-19.87-24.53-19.87-59,0-33.94,19.87-58.83t60.32-24.89q40.44,0,60.32,24.89t19.86,58.83Q1473.55,246.15,1453.69,270.67ZM1420.86,248q9.65-12.8,9.65-36.37t-9.65-36.3q-9.64-12.72-27.64-12.72t-27.71,12.72q-9.72,12.72-9.72,36.3t9.72,36.37q9.72,12.79,27.71,12.79T1420.86,248Z"/><path d="M1583.6,129.28c.53.05,1.7.12,3.53.22v42c-2.59-.28-4.9-.48-6.91-.57s-3.65-.15-4.9-.15q-24.75,0-33.25,16.13-4.75,9.06-4.75,27.93v75H1496V133h39.16V160.3q9.49-15.68,16.55-21.45,11.52-9.63,30-9.64C1582.42,129.21,1583.07,129.23,1583.6,129.28Z"/><path d="M1607.13,163.62V134.39H1629V90.63h40.59v43.76h25.48v29.23h-25.48v82.92q0,9.65,2.45,12t15,2.37c1.25,0,2.57,0,4-.07s2.76-.12,4.1-.22v30.67l-19.43.72q-29.09,1-39.74-10.08-6.9-7.05-6.9-21.74V163.62Z"/><path d="M1795.67,194.42q11.46-1.44,16.39-3.6,8.85-3.73,8.85-11.66,0-9.65-6.79-13.31t-19.92-3.67q-14.73,0-20.86,7.19-4.38,5.34-5.84,14.4h-39.59q1.3-20.58,11.57-33.83,16.33-20.73,56.1-20.73,25.88,0,46,10.22t20.1,38.58v72q0,7.48.29,18.14.42,8.07,2.44,10.94a14.68,14.68,0,0,0,6,4.75v6.05H1825.8a45.5,45.5,0,0,1-2.59-8.93q-.72-4.17-1.15-9.5a84.93,84.93,0,0,1-19.69,15.69,59.47,59.47,0,0,1-30.12,7.63q-21.43,0-35.4-12.16t-14-34.48q0-28.93,22.48-41.89,12.33-7,36.26-10.08Zm25.09,19.15a46,46,0,0,1-8,4,67.77,67.77,0,0,1-11,2.81l-9.34,1.72q-13.12,2.31-18.86,5.62-9.69,5.61-9.69,17.42,0,10.5,5.92,15.18a22.51,22.51,0,0,0,14.4,4.68,42.91,42.91,0,0,0,24.78-7.77q11.32-7.77,11.76-28.36Z"/><path d="M1939.39,289.87h-41V77.67h41Z"/></svg>