<svg xmlns="http://www.w3.org/2000/svg" width="260" height="28" viewBox="0 0 260 28"><g fill="none"><path fill="#000" class="_2x3cO" d="M148.863678,0 L148.863678,27.8943197 L145.005293,27.8943197 L145,0 L148.863678,0 Z M153.778841,28 L158.792802,0.103918978 L166.970039,20.2694848 L175.438374,0.103918978 L179.944235,28 L176.25698,28 L173.95818,12.338177 L166.90829,28 L160.05776,12.3205636 L157.497852,28 L153.778841,28 Z M188.357879,12.790841 L189.804553,12.790841 C193.357726,12.790841 195.136076,11.3007486 195.136076,8.32056363 C195.136076,5.43725231 193.303034,3.99471598 189.636951,3.99471598 L188.357879,3.99471598 L188.357879,12.790841 Z M188.357879,16.7010128 L188.357879,28 L184.487144,28 L184.487144,0.103918978 L188.873036,0.103918978 C191.021877,0.103918978 192.644974,0.26772347 193.742329,0.593571114 C194.848506,0.919418758 195.824129,1.53412594 196.665669,2.43945399 C198.138807,4.00704535 198.874494,5.98678996 198.874494,8.37516513 C198.874494,10.9326288 198.087644,12.9599295 196.515709,14.455306 C194.94201,15.9524439 192.821398,16.6992514 190.152108,16.6992514 L188.357879,16.6992514 L188.357879,16.7010128 Z M212.886061,17.9321885 L209.304661,8.99339498 L205.553894,17.9321885 L212.886061,17.9321885 Z M214.369784,21.6609423 L204.038414,21.6609423 L201.349718,28 L197.426055,28 L209.369937,0.103918978 L220.890403,28 L216.903228,28 L214.369784,21.6609423 Z M239.855946,2.0660502 L239.855946,6.85689124 C237.710635,4.90180537 235.489461,3.92426244 233.194189,3.92426244 C230.666038,3.92426244 228.536604,4.9123734 226.804124,6.89211801 C225.061058,8.85953325 224.189525,11.2672831 224.189525,14.1136063 C224.189525,16.9247028 225.061058,19.2972259 226.804124,21.2294144 C228.547189,23.1633642 230.681916,24.1303391 233.210067,24.1303391 C234.517366,24.1303391 235.627071,23.8978424 236.540946,23.4346103 C237.052574,23.2056363 237.580081,22.892118 238.126994,22.4975782 C238.673908,22.1047996 239.250813,21.6309996 239.855946,21.0744166 L239.855946,25.9533245 C237.731805,27.2602378 235.500046,28 233.162432,28 C229.646309,28 226.645342,26.5768384 224.157769,23.9048877 C221.682545,21.2082783 220.445815,17.9550859 220.445815,14.1470718 C220.445815,10.7335975 221.481422,7.6900044 223.552636,5.01629238 C226.101958,1.74372523 229.40108,0.105680317 233.450003,0.105680317 C235.658827,0.105680317 237.795318,0.760898283 239.855946,2.06781154 L239.855946,2.0660502 Z M254.128621,4.06164685 L254.128621,27.9982387 L250.264942,27.9982387 L250.264942,4.06340819 L244.37592,4.06340819 L244.37592,0.103918978 L260,0.103918978 L260,4.06164685 L254.128621,4.06164685 Z"></path><path fill="#F16521" d="M70.9736826,17.0681362 C70.6678818,17.9757693 70.1833599,18.8129628 69.548708,19.5303152 C68.9234101,20.2171892 68.1624842,20.763166 67.2588847,21.1594395 C66.3535238,21.5504293 65.3266262,21.7494466 64.1764304,21.7494466 L62.6457716,21.7494466 L62.6457716,6.13979473 L64.174669,6.13979473 C65.3019666,6.13979473 66.3182958,6.33881207 67.2218953,6.72980189 C68.093568,7.10258278 68.8750388,7.65814291 69.5134799,8.35892611 C70.1334936,9.04580011 70.6161179,9.87709377 70.9543071,10.8369561 C71.2942578,11.7968185 71.4615911,12.8376968 71.4615911,13.9419789 C71.4615911,15.079724 71.2977806,16.1188411 70.9736826,17.0681362 Z M77.4345069,8.63895935 C76.8108124,7.00763687 75.895877,5.5031965 74.7342769,4.19893539 C73.6053275,2.93812947 72.2473323,1.9030072 70.7323704,1.14851035 C69.2141002,0.383446053 67.5358143,-0.0101245016 65.8356715,0.000197928028 L56,0 L56,27.8890434 L65.8374329,27.8890434 C67.597074,27.8890434 69.2439853,27.501576 70.7675985,26.740731 C72.2848681,25.9808012 73.643138,24.9382964 74.7695049,23.6691714 C76.2984023,21.9519864 77.3851876,19.8684686 78.0192925,17.418618 C78.1196925,17.0311506 78.1971942,16.633116 78.2517977,16.2350813 C78.6216922,13.542183 78.3521976,11.0042716 77.4345069,8.63895935 Z M97.3418779,6.24546766 L97.3418779,0.104109635 L82.7962161,0.104109635 L82.7962161,27.9982388 L97.3418779,27.9982388 L97.3418779,21.8568808 L89.4367035,21.8568808 L89.4367035,17.0470016 L96.8997658,17.0470016 L96.8997658,10.9056435 L89.4367035,10.9056435 L89.4367035,6.24546766 L97.3418779,6.24546766 Z M116.666225,6.24546766 L116.666225,0.104109635 L102.120563,0.104109635 L102.120563,27.9982388 L116.666225,27.9982388 L116.666225,21.8568808 L108.766334,21.8568808 L108.766334,17.0470016 L116.224113,17.0470016 L116.224113,10.9056435 L108.766334,10.9056435 L108.766334,6.24546766 L116.666225,6.24546766 Z M130.357606,12.9222352 L128.147046,12.9222352 L128.147046,5.97952413 L130.359368,5.97952413 C132.805956,5.97952413 134.033653,7.13664264 134.033653,9.45087964 C134.033653,11.7704003 132.805956,12.9204739 130.359368,12.9204739 L130.357606,12.9222352 Z M138.708415,2.57861724 C137.174234,0.956537878 134.968958,0.141095158 132.089065,0.141095158 L121.481899,0.141095158 L121.481899,28 L128.145285,28 L128.145285,18.7606641 L132.089065,18.7606641 C134.968958,18.7606641 137.172472,17.9505051 138.706654,16.323142 C140.235551,14.695779 141,12.4079603 141,9.45087964 C141,6.49379902 140.235551,4.20774146 138.706654,2.57861724 L138.708415,2.57861724 Z"></path><path fill="#000" class="_2x3cO" d="M3.80484848,24.1287879 L3.80484848,3.87121212 L11.7272727,3.87121212 L11.7272727,0 L0,0 L0.00521212121,24.1287879 L0,24.1287879 L0.00521212121,25.1805556 L0.00521212121,27.994697 L0.0191111111,27.994697 L0.0191111111,28 L11.7272727,28 L11.7272727,24.1287879 L3.80484848,24.1287879 Z M39.1951515,24.1287879 L39.1951515,3.87121212 L31.2727273,3.87121212 L31.2727273,0 L43,0 L42.9947879,24.1287879 L43,24.1287879 L42.9947879,25.1805556 L42.9947879,27.994697 L42.9808889,27.994697 L42.9808889,28 L31.2727273,28 L31.2727273,24.1287879 L39.1951515,24.1287879 Z"></path><path fill="#F16521" d="M18,21 L25,21 L25,28 L18,28 L18,21 Z M18,0 L25,0 L25,18 L18,18 L18,0 Z"></path></g></svg>