<?xml version="1.0" encoding="UTF-8"?>
<svg width="64px" height="64px" viewBox="0 0 64 64" version="1.1" xmlns="http://www.w3.org/2000/svg" xmlns:xlink="http://www.w3.org/1999/xlink">
    <!-- Generator: Sketch 51.3 (57544) - http://www.bohemiancoding.com/sketch -->
    <title>Artboard</title>
    <desc>Created with Sketch.</desc>
    <defs></defs>
    <g id="Artboard" stroke="none" stroke-width="1" fill="none" fill-rule="evenodd">
        <g id="c" transform="translate(0.000000, 8.000000)" fill="#000000" fill-rule="nonzero">
            <path d="M58.86719,34.98047 C59.6484367,34.98047 61.1458333,34.98047 63.35938,34.98047 C63.35938,36.9986967 63.35938,41.0677067 63.35938,47.1875 C53.0078133,47.1875 32.20703,47.1875 0.95703,47.1875 C0.95703,39.375 0.95703,23.75 0.95703,0.3125 C11.3736967,0.3125 32.17448,0.3125 63.35938,0.3125 C63.35938,2.33072667 63.35938,6.39973667 63.35938,12.51953 C62.6432333,12.51953 61.1458367,12.51953 58.86719,12.51953 C58.86719,11.21745 58.86719,8.64583667 58.86719,4.80469 C52.03125,4.80469 38.29427,4.80469 17.65625,4.80469 C17.65625,11.11979 17.65625,23.7499967 17.65625,42.69531 C24.55729,42.69531 38.29427,42.69531 58.86719,42.69531 C58.86719,41.39323 58.86719,38.8216167 58.86719,34.98047 Z M36.01562,9.19922 C37.6432267,9.19922 39.3033833,9.19922 40.99609,9.19922 C40.99609,18.8346333 40.99609,28.5026 40.99609,38.20312 C39.3033833,38.20312 37.6432267,38.20312 36.01562,38.20312 C36.01562,28.17708 36.01562,18.5091133 36.01562,9.19922 Z" id="path_c_0"></path>
        </g>
    </g>
</svg>